<?xml version="1.0" standalone="no"?>
<!DOCTYPE svg PUBLIC "-//W3C//DTD SVG 20010904//EN"
 "http://www.w3.org/TR/2001/REC-SVG-20010904/DTD/svg10.dtd">
<svg version="1.0" xmlns="http://www.w3.org/2000/svg"
 width="1280.000000pt" height="640.000000pt" viewBox="0 0 1280.000000 640.000000"
 preserveAspectRatio="xMidYMid meet">
<metadata>
Created by potrace 1.15, written by Peter Selinger 2001-2017
</metadata>
<g transform="translate(0.000000,640.000000) scale(0.100000,-0.100000)"
fill="#000000" stroke="none">
<path d="M378 5220 c-83 -15 -146 -40 -205 -84 -176 -130 -220 -341 -111 -535
21 -38 93 -117 224 -246 218 -216 307 -315 427 -477 115 -156 210 -311 278
-453 83 -176 84 -163 -8 -152 -132 15 -425 2 -517 -22 -162 -43 -260 -112
-313 -220 -25 -49 -28 -67 -28 -151 0 -82 4 -103 27 -153 15 -32 48 -85 74
-118 196 -248 754 -538 1529 -794 l220 -72 0 -149 c0 -140 2 -152 26 -205 54
-115 154 -188 284 -209 118 -19 239 9 476 110 327 140 643 337 811 504 122
121 168 209 168 320 0 125 -50 219 -150 283 -58 37 -60 39 -55 73 14 92 17
378 5 483 -33 311 -145 756 -241 964 -75 165 -204 316 -335 396 -182 110 -452
135 -682 62 -42 -13 -80 -21 -86 -18 -6 4 -27 19 -46 34 -91 72 -231 119 -356
119 -75 0 -201 -27 -255 -56 l-33 -16 -30 38 c-195 245 -394 455 -531 557
-190 142 -410 215 -567 187z"/>
<path d="M5150 5219 c-177 -30 -332 -180 -358 -344 -18 -111 10 -215 84 -318
20 -28 115 -127 211 -221 265 -258 432 -463 579 -708 69 -117 174 -329 174
-354 0 -7 -24 -7 -77 -1 -129 14 -425 2 -515 -22 -202 -53 -312 -154 -337
-309 -23 -145 25 -261 168 -402 239 -236 722 -478 1419 -710 l263 -88 2 -158
c2 -173 9 -197 77 -284 64 -81 223 -139 340 -125 173 22 515 166 803 339 294
177 474 348 528 503 50 143 -21 323 -156 394 -40 21 -45 27 -41 49 20 98 28
268 17 403 -27 352 -142 833 -257 1073 -192 403 -567 567 -1006 440 l-82 -24
-45 34 c-170 130 -399 160 -594 78 l-58 -25 -22 28 c-178 227 -414 475 -545
572 -96 70 -241 144 -322 165 -78 19 -186 26 -250 15z"/>
<path d="M9420 5219 c-133 -23 -264 -120 -322 -237 -31 -62 -33 -73 -33 -172
0 -98 2 -109 32 -170 41 -83 94 -145 217 -256 192 -174 397 -413 555 -649 87
-131 241 -421 241 -456 0 -13 -10 -14 -77 -6 -111 12 -413 2 -498 -18 -154
-35 -274 -116 -326 -220 -21 -43 -24 -64 -24 -155 0 -100 2 -109 34 -175 26
-52 58 -93 125 -161 237 -236 733 -484 1440 -719 l250 -83 -3 -139 c-3 -169
12 -222 90 -308 89 -96 220 -138 361 -115 135 23 357 110 593 234 350 183 606
389 687 554 30 60 33 75 33 152 -1 130 -50 216 -166 291 -34 21 -48 37 -44 47
3 8 11 68 17 133 40 399 -137 1192 -329 1475 -212 311 -547 422 -935 310 l-81
-24 -51 38 c-166 124 -358 152 -560 82 l-90 -31 -15 22 c-114 163 -447 508
-573 595 -91 62 -222 126 -298 146 -78 19 -186 26 -250 15z"/>
</g>
</svg>
